<svg id="Layer_1" data-name="Layer 1" xmlns="http://www.w3.org/2000/svg" viewBox="0 0 375.88 371.52"><defs><style>.cls-1{fill:#f5a1b9;}.cls-10,.cls-2{fill:#6f0c29;}.cls-3,.cls-7,.cls-8{fill:none;}.cls-3,.cls-5,.cls-6,.cls-7{stroke:#6f0c29;}.cls-3,.cls-5,.cls-6,.cls-7,.cls-8{stroke-miterlimit:10;}.cls-3,.cls-5,.cls-6{stroke-width:0.43px;}.cls-4{fill:#f6d9d6;}.cls-5,.cls-9{fill:#5870b2;}.cls-6{fill:#e7ccca;}.cls-7{stroke-width:0.46px;}.cls-8{stroke:#f6d9d6;stroke-width:1.73px;}.cls-10,.cls-9{font-size:21.31px;font-family:BodoniBT-Bold, Bodoni Bd BT;font-weight:700;}</style></defs><title>sp</title><ellipse class="cls-1" cx="187.94" cy="185.76" rx="187.94" ry="185.76"/><path class="cls-2" d="M356.61,308.75l.26.19-1.75-1.35a14.22,14.22,0,0,1,2.41,2.37l-1.35-1.76a14.64,14.64,0,0,1,1.76,3l-.88-2.07a15.65,15.65,0,0,1,1,3.61l-.31-2.3a18.33,18.33,0,0,1,0,4.68l.31-2.3a23,23,0,0,1-1.59,5.76l.87-2.06a23.52,23.52,0,0,1-2.82,4.85l1.36-1.75a19.42,19.42,0,0,1-3.33,3.39l1.75-1.36a7.69,7.69,0,0,1-1.49.95l2.07-.88a27.14,27.14,0,0,1-6.68,1.84l2.3-.31a44,44,0,0,1-11.41-.2l2.3.3c-8.8-1.2-17.36-3.52-26.25-4.23a108.6,108.6,0,0,0-20.87.05A66.14,66.14,0,0,0,270.67,326a54.35,54.35,0,0,0-10.41,7.25,56.23,56.23,0,0,0-8.16,9.52,72.38,72.38,0,0,0-13.43,43.9,61.4,61.4,0,0,0,1.47,13A27.22,27.22,0,0,0,246.29,411c4.88,5.55,12.31,9,19.41,10.57,7.74,1.75,16,1.82,23.88,1.92,7.52.09,15.05,0,22.55.61,1.79.15,3.58.34,5.36.58l-2.3-.31a65.36,65.36,0,0,1,16.49,4.34l-2.07-.87a52.37,52.37,0,0,1,10.09,5.73L338,432.18a44.84,44.84,0,0,1,7.48,7.54L344.08,438a40.49,40.49,0,0,1,5.16,8.83l-.87-2.06a39.49,39.49,0,0,1,2.59,9.49l-.31-2.3a40.31,40.31,0,0,1,0,10.41L351,460a42.93,42.93,0,0,1-2.88,10.56l.87-2.07A46.27,46.27,0,0,1,343,478.67l1.35-1.75q-1.44,1.84-3.05,3.56l1.75-1.35a21.1,21.1,0,0,0-6.08,5.29c-1.51,1.88-2.88,4-4.8,5.53l1.75-1.35a67,67,0,0,1-14.66,8.28l2.07-.87c-10,4.19-20.56,7-30.43,11.61a8.65,8.65,0,0,0-4,5.17,8.88,8.88,0,0,0,.87,6.67,8.73,8.73,0,0,0,5.17,4,9.84,9.84,0,0,0,6.67-.87c1.21-.57,2.42-1.11,3.65-1.63l-2.07.88c13.95-5.83,29.21-9,41.44-18.28a21.68,21.68,0,0,0,3.74-3.34c.67-.78,1.29-1.59,1.93-2.41a23.57,23.57,0,0,1,4-4.27l-1.76,1.36a23.79,23.79,0,0,0,4.24-3.5c1.2-1.37,2.31-2.81,3.4-4.25a46.76,46.76,0,0,0,3.73-5.72,50.27,50.27,0,0,0,5.33-14.17,46.9,46.9,0,0,0,.81-14.66,50.45,50.45,0,0,0-4.54-16,49.1,49.1,0,0,0-22.94-22.69c-10.76-5.18-22.42-7-34.26-7.45s-24,.19-35.86-1.41l2.3.31a36.48,36.48,0,0,1-9-2.57l2.07.87a28.69,28.69,0,0,1-6.12-3.54l1.75,1.35a21.59,21.59,0,0,1-3.7-3.7l1.36,1.75a18.59,18.59,0,0,1-2.17-3.7l.87,2.07a23.69,23.69,0,0,1-1.5-6l.31,2.3a69.27,69.27,0,0,1,0-17.91l-.3,2.3a65.06,65.06,0,0,1,4.36-16.1l-.87,2.06a65.73,65.73,0,0,1,8.47-14.52l-1.35,1.75a43.59,43.59,0,0,1,7.69-7.9l-1.75,1.35a47.37,47.37,0,0,1,10.07-5.86l-2.06.87a57.72,57.72,0,0,1,14.2-3.77l-2.3.31c8.67-1.16,17.45-.74,26.13.09l-2.3-.31c13.36,1.81,27.42,7.15,40.84,2.74a19.2,19.2,0,0,0,5.18-2.27,31.85,31.85,0,0,0,3.73-3,29.44,29.44,0,0,0,4.75-6.23,30.22,30.22,0,0,0,4.13-15.49A25,25,0,0,0,372.65,302c-1.6-3.42-4.33-5.94-7.3-8.15-1.69-1.25-4.74-1.4-6.67-.87a8.66,8.66,0,0,0-6,10.65,10.07,10.07,0,0,0,4,5.17Z" transform="translate(-109.5 -235.68)"/><path class="cls-3" d="M274.79,525.41c1.88,1.78,5.93.23,9.06-3.47" transform="translate(-109.5 -235.68)"/><path class="cls-4" d="M280.21,504.22l3.92,11.32a6.87,6.87,0,0,1-3.78,8.65h0a6.29,6.29,0,0,1-8.17-4l-3.93-11.32a6.89,6.89,0,0,1,3.79-8.65h0A6.3,6.3,0,0,1,280.21,504.22Z" transform="translate(-109.5 -235.68)"/><path class="cls-4" d="M208.23,484.14l3.06-6.17a3.77,3.77,0,0,1,5.2-1.71l63.58,35.33a4.21,4.21,0,0,1,1.62,5.5l-3.06,6.17a3.77,3.77,0,0,1-5.2,1.71l-63.58-35.33A4.21,4.21,0,0,1,208.23,484.14Z" transform="translate(-109.5 -235.68)"/><path class="cls-5" d="M160.55,453l2.75-5A9,9,0,0,1,176,444.33L232.68,479a10.16,10.16,0,0,1,3.39,13.42l-2.74,5a9,9,0,0,1-12.67,3.6L164,466.36A10.17,10.17,0,0,1,160.55,453Z" transform="translate(-109.5 -235.68)"/><ellipse class="cls-6" cx="273.4" cy="510.11" rx="2.47" ry="6.83" transform="translate(-349.67 7.6) rotate(-34.36)"/><line class="cls-3" x1="127.84" y1="252.07" x2="158.14" y2="269.02"/><line class="cls-3" x1="120.6" y1="265.22" x2="165.58" y2="289.94"/><path class="cls-7" d="M276.59,500.28c-2.31-1.66-6.31.32-9,4.42" transform="translate(-109.5 -235.68)"/><line class="cls-3" x1="169.82" y1="266.41" x2="175.41" y2="281.32"/><line class="cls-3" x1="166.97" y1="264.54" x2="168.34" y2="265.35"/><line class="cls-3" x1="168.28" y1="265.31" x2="169.25" y2="265.96"/><line class="cls-3" x1="169.85" y1="266.49" x2="169.49" y2="266.05"/><line class="cls-3" x1="169.1" y1="265.84" x2="169.65" y2="266.22"/><line class="cls-3" x1="174.32" y1="286.46" x2="175.42" y2="281.11"/><ellipse class="cls-4" cx="277.31" cy="524.08" rx="2.58" ry="1.47" transform="translate(-295.72 -81.31) rotate(-23.54)"/><ellipse class="cls-4" cx="278.97" cy="523.82" rx="2.58" ry="1.47" transform="translate(-295.48 -80.67) rotate(-23.54)"/><ellipse class="cls-4" cx="277.83" cy="524.2" rx="2.58" ry="1.47" transform="translate(-295.73 -81.1) rotate(-23.54)"/><line class="cls-8" x1="171.02" y1="287.92" x2="173.52" y2="285.51"/><line class="cls-8" x1="173.08" y1="286.12" x2="173.95" y2="282.66"/><text class="cls-9" transform="matrix(0.97, -0.06, 0.04, 1, 204.8, 300.28)">s</text><text class="cls-9" transform="matrix(0.97, -0.14, 0.12, 0.99, 213.48, 299.81)">p</text><text class="cls-9" transform="matrix(0.94, -0.29, 0.27, 0.96, 226.37, 297.86)">e</text><text class="cls-9" transform="matrix(0.87, -0.47, 0.45, 0.88, 237.84, 293.98)">t</text><text class="cls-9" transform="matrix(0.78, -0.61, 0.6, 0.78, 245.34, 289.74)">l</text><text class="cls-9" transform="matrix(0.66, -0.74, 0.74, 0.66, 251.31, 284.83)">j</text><text class="cls-10" transform="matrix(0.48, -0.87, 0.87, 0.47, 256.44, 278.7)">a</text><text class="cls-10" transform="matrix(0.28, -0.95, 0.96, 0.26, 262.33, 267.69)">n</text><text class="cls-10" transform="matrix(0.06, -0.98, 0.99, 0.04, 265.92, 254.48)">a</text></svg>